<?xml version="1.0" encoding="iso-8859-1"?>
<!-- Generator: Adobe Illustrator 19.0.0, SVG Export Plug-In . SVG Version: 6.00 Build 0)  -->
<svg fill="#e15b64" version="1.1" id="Capa_1" xmlns="http://www.w3.org/2000/svg" xmlns:xlink="http://www.w3.org/1999/xlink" x="0px" y="0px"
	 viewBox="0 0 490 490" style="enable-background:new 0 0 490 490;" xml:space="preserve">
<path d="M69.086,490h351.829C459.001,490,490,459.001,490,420.914V69.086C490,30.991,459.001,0,420.914,0H69.086
	C30.999,0,0,30.991,0,69.086v351.829C0,459.001,30.999,490,69.086,490z M273.621,150.546l21.653-21.653l28.277,28.28l28.277-28.28
	l21.653,21.653l-28.278,28.281l28.278,28.281l-21.653,21.653l-28.277-28.28l-28.277,28.28l-21.653-21.653l28.278-28.281
	L273.621,150.546z M372.988,339.597l-18.303,24.554c-105.812-78.91-210.188-3.26-214.584,0l-18.333-24.539
	C123.023,338.684,248.589,246.787,372.988,339.597z M116.519,150.546l21.653-21.653l28.277,28.28l28.277-28.28l21.653,21.653
	l-28.278,28.281l28.278,28.281l-21.653,21.653l-28.277-28.28l-28.277,28.28l-21.653-21.653l28.278-28.281L116.519,150.546z"/>
<g>
</g>
<g>
</g>
<g>
</g>
<g>
</g>
<g>
</g>
<g>
</g>
<g>
</g>
<g>
</g>
<g>
</g>
<g>
</g>
<g>
</g>
<g>
</g>
<g>
</g>
<g>
</g>
<g>
</g>
</svg>
