<svg height="512pt" viewBox="0 -31 512 512" width="512pt" xmlns="http://www.w3.org/2000/svg"><path d="m421 138.601562v116.398438c0 48.601562-84.902344 75-165 75s-165-26.398438-165-75v-116.398438c0-8.101562 6.597656-15 15-15h300c8.402344 0 15 6.898438 15 15zm0 0" fill="#444"/><path d="m421 138.601562v116.398438c0 48.601562-84.902344 75-165 75v-206.398438h150c8.402344 0 15 6.898438 15 15zm0 0" fill="#292929"/><path d="m512 105c0 6.300781-3.898438 12-9.601562 14.097656l-241 90c-1.796876.601563-3.597657.902344-5.398438.902344s-3.601562-.300781-5.398438-.902344l-241-90v-28.199218l241-90c1.796876-.597657 3.597657-.898438 5.398438-.898438s3.601562.300781 5.398438.898438l241 90c5.703124 2.101562 9.601562 7.800781 9.601562 14.101562zm0 0" fill="#6e6e6e"/><path d="m512 105c0 6.300781-3.898438 12-9.601562 14.097656l-241 90c-1.796876.601563-3.597657.902344-5.398438.902344v-210c1.800781 0 3.601562.300781 5.398438.898438l241 90c5.703124 2.101562 9.601562 7.800781 9.601562 14.101562zm0 0" fill="#5a5a5a"/><path d="m271 105c0 8.398438-6.597656 15-15 15h-226v222.597656l29.097656 87.601563c2.703125 7.796875-1.5 16.5-9.296875 18.898437-8.101562 2.703125-16.5-1.5-18.898437-9.300781l-.902344-2.695313c-1.199219 7.199219-7.5 12.898438-15 12.898438-8.402344 0-15-6.601562-15-15v-330c0-8.402344 6.597656-15 15-15h241c8.402344 0 15 6.597656 15 15zm0 0" fill="#fdbf00"/></svg>