<svg id="Capa_1" enable-background="new 0 0 497.015 497.015" height="512" viewBox="0 0 497.015 497.015" width="512" xmlns="http://www.w3.org/2000/svg"><g><path d="m215.381 422.168c-105.051-6.566-169.53-62.628-180.545-72.928-1.114-1.042-2.578-1.622-4.103-1.622h-14.148c-10.862 0-18.809-10.29-16.025-20.789 42.915-161.858 144.951-250.881 155.885-260.055.636-.534 1.148-1.197 1.516-1.941 23.303-47.166 66.542-61.215 78.896-64.352 2.051-.521 4.217.079 5.714 1.575l67.32 67.32c2.582 2.582 2.278 6.852-.643 9.043l-56.101 42.076c-2.584 1.938-6.238 1.483-8.268-1.03l-9.564-11.843c-1.835-2.272-5.035-2.899-7.583-1.472-5.504 3.082-16.358 7.878-32.357 9.239-2.83.241-5.091 2.463-5.417 5.284l-13.502 116.984c-.521 4.518 3.98 7.973 8.196 6.266 12.129-4.909 35.115-12.272 63.865-12.272 41.685 0 71.256 14.735 83.33 22.02 3.142 1.896 7.218.561 8.63-2.827 21.859-52.455 80.62-83.654 150.392-85.384 3.37-.084 6.149 2.635 6.149 6.006v319.251c0 3.314-2.686 6-6 6h-39.182c-45.184 0-84.559-37.62-105.181-93.28-1.244-3.357-5.106-4.923-8.304-3.312-15.271 7.696-59.04 26.039-122.97 22.043z" fill="#ffdaaa"/><path d="m215.381 422.168c-105.051-6.566-169.53-62.628-180.545-72.928-1.114-1.042-2.578-1.622-4.103-1.622h-14.148c-10.862 0-18.809-10.29-16.025-20.789 42.915-161.858 144.951-250.881 155.885-260.055.636-.534 1.148-1.197 1.516-1.941 23.303-47.166 66.542-61.215 78.896-64.352 2.051-.521 4.217.079 5.714 1.575l67.32 67.32c2.582 2.582 2.278 6.852-.643 9.043l-56.101 42.076c-2.584 1.938-6.238 1.483-8.268-1.03l-9.564-11.843c-1.835-2.272-5.035-2.899-7.583-1.472-5.504 3.082-16.358 7.878-32.357 9.239-2.83.241-5.091 2.463-5.417 5.284l-13.502 116.984c-.521 4.518 3.98 7.973 8.196 6.266 12.129-4.909 35.115-12.272 63.865-12.272 41.685 0 71.256 14.735 83.33 22.02 3.142 1.896 7.218.561 8.63-2.827 21.859-52.455 80.62-83.654 150.392-85.384 3.37-.084 6.149 2.635 6.149 6.006v319.251c0 3.314-2.686 6-6 6h-39.182c-45.184 0-84.559-37.62-105.181-93.28-1.244-3.357-5.106-4.923-8.304-3.312-15.271 7.696-59.04 26.039-122.97 22.043z" fill="#ffdaaa"/><g fill="#ffbe8a"><path d="m250.458 75.264c-4.001-1.069-8.1 1.271-9.168 5.273-.308 1.055-8.036 25.86-51.072 27.654-3.387.141-6.153 2.509-6.952 5.633-3.32.677-6.944 1.228-10.894 1.564-2.83.241-5.091 2.463-5.417 5.284l-13.502 116.984c-.522 4.518 3.98 7.973 8.196 6.266 3.875-1.568 8.863-3.387 14.789-5.136-.026-.369-.03-.744.014-1.13l13.218-114.525.284-2.459c.326-2.821 2.588-5.043 5.417-5.284.997-.085 1.973-.183 2.93-.293.455-.052.89-.116 1.335-.174.492-.064.993-.122 1.475-.192.587-.085 1.151-.182 1.721-.275.319-.052.649-.099.963-.154.703-.123 1.383-.257 2.06-.391.165-.033.338-.062.501-.095.749-.154 1.477-.316 2.194-.482.081-.019.167-.036.247-.054.775-.182 1.529-.371 2.265-.565.017-.005.036-.009.054-.013.753-.199 1.485-.404 2.198-.613.001 0 .002 0 .003-.001 6.486-1.907 11.303-4.194 14.412-5.934 2.549-1.427 5.748-.8 7.583 1.472l1.383 1.713c15.075-10.757 18.825-23.95 19.065-24.851 1.069-4.005-1.299-8.156-5.302-9.222z"/><path d="m286.89 69.376c2.582 2.582 2.278 6.852-.643 9.043l-46.408 34.806 5.039 6.239c2.029 2.513 5.684 2.968 8.268 1.03l56.101-42.076c2.921-2.191 3.225-6.461.643-9.043l-67.32-67.32c-1.497-1.496-3.663-2.096-5.714-1.575-3.07.78-8.051 2.235-14.157 4.704z"/><path d="m490.866 165.461c-6.503.161-12.909.58-19.2 1.247 1.425 1.098 2.349 2.819 2.349 4.76v319.251c0 3.314-2.686 6-6 6h23c3.314 0 6-2.686 6-6v-319.252c0-3.371-2.779-6.09-6.149-6.006z"/></g><g><path d="m414.182 421.385c-4.143 0-7.5-3.357-7.5-7.5 0-50.674-41.227-91.9-91.9-91.9h-33.133c-4.143 0-7.5-3.357-7.5-7.5s3.357-7.5 7.5-7.5h33.133c58.945 0 106.9 47.955 106.9 106.9 0 4.143-3.357 7.5-7.5 7.5z" fill="#ffbe8a"/></g><path d="m57.215 355.118c0-4.143-3.358-7.5-7.5-7.5h-18.982c1.525 0 2.989.581 4.103 1.622 2.543 2.378 7.942 7.198 16.025 13.281 3.597-.552 6.354-3.651 6.354-7.403z" fill="#ffbe8a"/><path d="m108.92 116.016 73.96 65.967 7.076-61.31c.153-1.327.746-2.512 1.614-3.43l-34.254-51.381c-.257.333-.547.64-.872.912-4.39 3.684-23.478 20.257-47.524 49.242z" fill="#19cffc"/><path d="m190.424 118.99c.028-.065.047-.134.078-.197.272-.575.637-1.094 1.068-1.55l-3.095-4.642c-4.607 1.24-9.974 2.267-16.102 2.789-2.83.241-5.091 2.463-5.417 5.284l-4.93 42.71 20.853 18.6 7.076-61.31c.039-.338.108-.666.201-.984.071-.243.17-.472.268-.7z" fill="#27ade2"/><g><path d="m347.916 263.92c2.125 0 4.235-.897 5.719-2.643 2.683-3.156 2.298-7.889-.858-10.571-2.872-2.441-5.886-4.761-9.016-6.972-1.164 2.33-2.277 4.691-3.287 7.112-1.412 3.387-5.488 4.723-8.63 2.827-.435-.263-.9-.538-1.381-.819 4.46 2.853 8.677 5.947 12.6 9.282 1.411 1.198 3.137 1.784 4.853 1.784z" fill="#ffbe8a"/></g><path d="m398.879 356.738c-3.233-2.587-7.954-2.06-10.541 1.176-14.023 17.543-30.673 31.592-49.845 42.15 3.169-1.495 6.934.067 8.16 3.375.943 2.546 1.939 5.041 2.96 7.509 19.311-11.256 36.212-25.865 50.443-43.668 2.585-3.237 2.059-7.956-1.177-10.542z" fill="#ffbe8a"/></g></svg>