<svg xmlns="http://www.w3.org/2000/svg" xmlns:xlink="http://www.w3.org/1999/xlink" style="margin: auto; background: rgb(40, 44, 52); display: block;" width="200px" height="200px" viewBox="0 0 100 100" preserveAspectRatio="xMidYMid">
  <g transform="translate(50 50)"> <g transform="translate(-17 -17) scale(0.5)"> <g>
  <animateTransform attributeName="transform" type="rotate" values="0;36" keyTimes="0;1" dur="0.2s" begin="0s" repeatCount="indefinite"></animateTransform><path d="M37.3496987939662 -7 L47.3496987939662 -7 L47.3496987939662 7 L37.3496987939662 7 A38 38 0 0 1 34.33103782515145 16.29048316803467 L34.33103782515145 16.29048316803467 L42.42120776890092 22.168335690959402 L34.192214236806294 33.49457361220867 L26.10204429305682 27.616721089283935 A38 38 0 0 1 18.19908727618711 33.35855545903816 L18.19908727618711 33.35855545903816 L21.289257219936587 42.869120621989694 L7.974465991804433 47.19535854323896 L4.884296048054957 37.684793380287424 A38 38 0 0 1 -4.884296048054953 37.684793380287424 L-4.884296048054953 37.684793380287424 L-7.974465991804427 47.19535854323896 L-21.28925721993658 42.869120621989694 L-18.199087276187107 33.35855545903816 A38 38 0 0 1 -26.102044293056814 27.61672108928394 L-26.102044293056814 27.61672108928394 L-34.19221423680629 33.49457361220867 L-42.42120776890091 22.168335690959402 L-34.33103782515144 16.29048316803467 A38 38 0 0 1 -37.3496987939662 7.000000000000007 L-37.3496987939662 7.000000000000007 L-47.3496987939662 7.000000000000008 L-47.3496987939662 -6.9999999999999964 L-37.3496987939662 -6.999999999999997 A38 38 0 0 1 -34.33103782515145 -16.290483168034662 L-34.33103782515145 -16.290483168034662 L-42.42120776890093 -22.168335690959392 L-34.1922142368063 -33.494573612208654 L-26.102044293056824 -27.616721089283928 A38 38 0 0 1 -18.1990872761871 -33.358555459038165 L-18.1990872761871 -33.358555459038165 L-21.289257219936577 -42.8691206219897 L-7.974465991804454 -47.19535854323896 L-4.8842960480549795 -37.684793380287424 A38 38 0 0 1 4.884296048054964 -37.684793380287424 L4.884296048054964 -37.684793380287424 L7.974465991804436 -47.19535854323896 L21.28925721993656 -42.8691206219897 L18.199087276187086 -33.358555459038165 A38 38 0 0 1 26.102044293056824 -27.616721089283928 L26.102044293056824 -27.616721089283928 L34.192214236806294 -33.49457361220866 L42.421207768900906 -22.168335690959424 L34.331037825151434 -16.29048316803469 A38 38 0 0 1 37.3496987939662 -6.999999999999995 M0 -23A23 23 0 1 0 0 23 A23 23 0 1 0 0 -23" fill="#abbd81"></path></g></g> <g transform="translate(0 22) scale(0.4)"> <g>
  <animateTransform attributeName="transform" type="rotate" values="36;0" keyTimes="0;1" dur="0.2s" begin="-0.1s" repeatCount="indefinite"></animateTransform><path d="M37.3496987939662 -7 L47.3496987939662 -7 L47.3496987939662 7 L37.3496987939662 7 A38 38 0 0 1 34.33103782515145 16.29048316803467 L34.33103782515145 16.29048316803467 L42.42120776890092 22.168335690959402 L34.192214236806294 33.49457361220867 L26.10204429305682 27.616721089283935 A38 38 0 0 1 18.19908727618711 33.35855545903816 L18.19908727618711 33.35855545903816 L21.289257219936587 42.869120621989694 L7.974465991804433 47.19535854323896 L4.884296048054957 37.684793380287424 A38 38 0 0 1 -4.884296048054953 37.684793380287424 L-4.884296048054953 37.684793380287424 L-7.974465991804427 47.19535854323896 L-21.28925721993658 42.869120621989694 L-18.199087276187107 33.35855545903816 A38 38 0 0 1 -26.102044293056814 27.61672108928394 L-26.102044293056814 27.61672108928394 L-34.19221423680629 33.49457361220867 L-42.42120776890091 22.168335690959402 L-34.33103782515144 16.29048316803467 A38 38 0 0 1 -37.3496987939662 7.000000000000007 L-37.3496987939662 7.000000000000007 L-47.3496987939662 7.000000000000008 L-47.3496987939662 -6.9999999999999964 L-37.3496987939662 -6.999999999999997 A38 38 0 0 1 -34.33103782515145 -16.290483168034662 L-34.33103782515145 -16.290483168034662 L-42.42120776890093 -22.168335690959392 L-34.1922142368063 -33.494573612208654 L-26.102044293056824 -27.616721089283928 A38 38 0 0 1 -18.1990872761871 -33.358555459038165 L-18.1990872761871 -33.358555459038165 L-21.289257219936577 -42.8691206219897 L-7.974465991804454 -47.19535854323896 L-4.8842960480549795 -37.684793380287424 A38 38 0 0 1 4.884296048054964 -37.684793380287424 L4.884296048054964 -37.684793380287424 L7.974465991804436 -47.19535854323896 L21.28925721993656 -42.8691206219897 L18.199087276187086 -33.358555459038165 A38 38 0 0 1 26.102044293056824 -27.616721089283928 L26.102044293056824 -27.616721089283928 L34.192214236806294 -33.49457361220866 L42.421207768900906 -22.168335690959424 L34.331037825151434 -16.29048316803469 A38 38 0 0 1 37.3496987939662 -6.999999999999995 M0 -23A23 23 0 1 0 0 23 A23 23 0 1 0 0 -23" fill="#e15b64"></path></g></g> <g transform="translate(28 4) scale(0.3)"> <g>
  <animateTransform attributeName="transform" type="rotate" values="0;36" keyTimes="0;1" dur="0.2s" begin="-0.1s" repeatCount="indefinite"></animateTransform><path d="M37.3496987939662 -7 L47.3496987939662 -7 L47.3496987939662 7 L37.3496987939662 7 A38 38 0 0 1 34.33103782515145 16.29048316803467 L34.33103782515145 16.29048316803467 L42.42120776890092 22.168335690959402 L34.192214236806294 33.49457361220867 L26.10204429305682 27.616721089283935 A38 38 0 0 1 18.19908727618711 33.35855545903816 L18.19908727618711 33.35855545903816 L21.289257219936587 42.869120621989694 L7.974465991804433 47.19535854323896 L4.884296048054957 37.684793380287424 A38 38 0 0 1 -4.884296048054953 37.684793380287424 L-4.884296048054953 37.684793380287424 L-7.974465991804427 47.19535854323896 L-21.28925721993658 42.869120621989694 L-18.199087276187107 33.35855545903816 A38 38 0 0 1 -26.102044293056814 27.61672108928394 L-26.102044293056814 27.61672108928394 L-34.19221423680629 33.49457361220867 L-42.42120776890091 22.168335690959402 L-34.33103782515144 16.29048316803467 A38 38 0 0 1 -37.3496987939662 7.000000000000007 L-37.3496987939662 7.000000000000007 L-47.3496987939662 7.000000000000008 L-47.3496987939662 -6.9999999999999964 L-37.3496987939662 -6.999999999999997 A38 38 0 0 1 -34.33103782515145 -16.290483168034662 L-34.33103782515145 -16.290483168034662 L-42.42120776890093 -22.168335690959392 L-34.1922142368063 -33.494573612208654 L-26.102044293056824 -27.616721089283928 A38 38 0 0 1 -18.1990872761871 -33.358555459038165 L-18.1990872761871 -33.358555459038165 L-21.289257219936577 -42.8691206219897 L-7.974465991804454 -47.19535854323896 L-4.8842960480549795 -37.684793380287424 A38 38 0 0 1 4.884296048054964 -37.684793380287424 L4.884296048054964 -37.684793380287424 L7.974465991804436 -47.19535854323896 L21.28925721993656 -42.8691206219897 L18.199087276187086 -33.358555459038165 A38 38 0 0 1 26.102044293056824 -27.616721089283928 L26.102044293056824 -27.616721089283928 L34.192214236806294 -33.49457361220866 L42.421207768900906 -22.168335690959424 L34.331037825151434 -16.29048316803469 A38 38 0 0 1 37.3496987939662 -6.999999999999995 M0 -23A23 23 0 1 0 0 23 A23 23 0 1 0 0 -23" fill="#f8b26a"></path></g></g></g>
  </svg>